<svg width="320" height="320" viewBox="0 0 320 320" xmlns="http://www.w3.org/2000/svg">
    <svg xmlns="http://www.w3.org/2000/svg" width="22" height="22" viewBox="-2 -2 22 22" x="2" y="2">
        <title>组织</title>
        <g fill="none" fill-rule="evenodd">
            <circle fill="#A6B4C9" cx="9.5" cy="2.5" r="2.5"/>
            <circle fill="#A6B4C9" cx="2.5" cy="13.5" r="2.5"/>
            <circle fill="#A6B4C9" cx="16.5" cy="13.5" r="2.5"/>
            <circle fill="#A6B4C9" cx="9.5" cy="13.5" r="2.5"/>
            <path fill="#899CB9" d="M9 7.985v.5h1V5.636H9v.5z"/>
            <path fill="#899CB9" d="M3 8.494L2.5 9h14l-.5-.5v1.496h1V8H1.994L2 8.506l.018 1.496 1-.012z"/>
        </g>
    </svg>
    <svg xmlns="http://www.w3.org/2000/svg" width="22" height="22" viewBox="-2 -2 22 22" x="27" y="2">
        <title>组织</title>
        <g fill="none" fill-rule="evenodd">
            <circle fill="#398DEE" cx="9.5" cy="2.5" r="2.5"/>
            <circle fill="#398DEE" cx="2.5" cy="13.5" r="2.5"/>
            <circle fill="#398DEE" cx="16.5" cy="13.5" r="2.5"/>
            <circle fill="#398DEE" cx="9.5" cy="13.5" r="2.5"/>
            <path fill="#398DEE" d="M9 7.985v.5h1V5.636H9v.5z"/>
            <path fill="#398DEE" d="M3 8.494L2.5 9h14l-.5-.5v1.496h1V8H1.994L2 8.506l.018 1.496 1-.012z"/>
        </g>
    </svg>
    <svg xmlns="http://www.w3.org/2000/svg" width="22" height="22" viewBox="-2 -2 22 22" x="54" y="2">
        <title>删除icon hover</title>
        <path d="M3 14h9V6.159c0-.445.348-.806.79-.806h.42c.436 0 .79.355.79.8V15.2c0 .442-.348.8-.79.8H1.79a.789.789 0 0 1-.79-.792V6.153c0-.442.348-.8.79-.8h.42c.436 0 .79.355.79.8V14zM0 2.79C0 2.354.356 2 .806 2h13.388c.445 0 .806.348.806.79v.42c0 .436-.356.79-.806.79H.806A.795.795 0 0 1 0 3.21v-.42zm5-2c0-.436.36-.79.803-.79h3.394C9.64 0 10 .348 10 .79v.42c0 .436-.36.79-.803.79H5.803A.793.793 0 0 1 5 1.21V.79zm3 6.153c0-.225.185-.407.405-.407h1.19c.224 0 .405.171.405.407v5.102a.408.408 0 0 1-.405.406h-1.19A.399.399 0 0 1 8 12.045V6.943zm-3 0c0-.225.185-.407.405-.407h1.19c.224 0 .405.171.405.407v5.102a.408.408 0 0 1-.405.406h-1.19A.399.399 0 0 1 5 12.045V6.943z"
              fill="#A6B4C9" fill-rule="evenodd"/>
    </svg>
    <svg xmlns="http://www.w3.org/2000/svg" width="22" height="22" viewBox="-2 -2 22 22" x="81" y="2">
        <title>删除icon hover</title>
        <path d="M3 14h9V6.159c0-.445.348-.806.79-.806h.42c.436 0 .79.355.79.8V15.2c0 .442-.348.8-.79.8H1.79a.789.789 0 0 1-.79-.792V6.153c0-.442.348-.8.79-.8h.42c.436 0 .79.355.79.8V14zM0 2.79C0 2.354.356 2 .806 2h13.388c.445 0 .806.348.806.79v.42c0 .436-.356.79-.806.79H.806A.795.795 0 0 1 0 3.21v-.42zm5-2c0-.436.36-.79.803-.79h3.394C9.64 0 10 .348 10 .79v.42c0 .436-.36.79-.803.79H5.803A.793.793 0 0 1 5 1.21V.79zm3 6.153c0-.225.185-.407.405-.407h1.19c.224 0 .405.171.405.407v5.102a.408.408 0 0 1-.405.406h-1.19A.399.399 0 0 1 8 12.045V6.943zm-3 0c0-.225.185-.407.405-.407h1.19c.224 0 .405.171.405.407v5.102a.408.408 0 0 1-.405.406h-1.19A.399.399 0 0 1 5 12.045V6.943z"
              fill="#DC143C" fill-rule="evenodd"/>
    </svg>
    <svg xmlns="http://www.w3.org/2000/svg" viewBox="-2 -2 22 22" width="22" height="22" x="108" y="0">
        <g fill="#959FB1">
            <path d="M16 6v-.9L9.7 8h.1L4 5.1V6l5.7-2L16 6zM9.7 2l-7 2.5c-.9.3-.9 1.5-.1 1.9l7.1 3.5c.2.1.4.1.7 0l7.1-3.5c.8-.4.8-1.6-.1-1.9L10.3 2h-.6z"/>
            <path d="M9.6 12.2h.7l-7-3.1c-.5-.2-1 0-1.2.5-.2.5 0 1 .5 1.2L9.7 14c.2.1.5.1.7 0l7.1-3.2c.5-.2.7-.7.5-1.2-.2-.5-.7-.7-1.2-.5l-7.2 3.1z"/>
            <path d="M9.6 16.2h.7L3.2 13c-.5-.2-1 0-1.2.5-.2.5 0 1 .5 1.2l7.1 3.2c.2.1.5.1.7 0l7.1-3.2c.5-.2.7-.7.5-1.2-.2-.5-.7-.7-1.2-.5l-7.1 3.2z"/>
        </g>
    </svg>
    <svg xmlns="http://www.w3.org/2000/svg" viewBox="-2 -2 22 22" width="22" height="22" x="135" y="0">
        <g fill="#70DB93">
            <path d="M16 6v-.9L9.7 8h.1L4 5.1V6l5.7-2L16 6zM9.7 2l-7 2.5c-.9.3-.9 1.5-.1 1.9l7.1 3.5c.2.1.4.1.7 0l7.1-3.5c.8-.4.8-1.6-.1-1.9L10.3 2h-.6z"/>
            <path d="M9.6 12.2h.7l-7-3.1c-.5-.2-1 0-1.2.5-.2.5 0 1 .5 1.2L9.7 14c.2.1.5.1.7 0l7.1-3.2c.5-.2.7-.7.5-1.2-.2-.5-.7-.7-1.2-.5l-7.2 3.1z"/>
            <path d="M9.6 16.2h.7L3.2 13c-.5-.2-1 0-1.2.5-.2.5 0 1 .5 1.2l7.1 3.2c.2.1.5.1.7 0l7.1-3.2c.5-.2.7-.7.5-1.2-.2-.5-.7-.7-1.2-.5l-7.1 3.2z"/>
        </g>
    </svg>
    <svg xmlns="http://www.w3.org/2000/svg" width="22" height="22" viewBox="-2 -2 22 22" x="162" y="2">
        <title>Slice 1</title>
        <g fill="none" fill-rule="evenodd">
            <path d="M4.772 6.596l3.45-2.138M5.157 8.944l3.524 1.47" stroke="#959FB1" stroke-width="1.5"/>
            <path d="M11.455 5.09a2.545 2.545 0 1 0 0-5.09 2.545 2.545 0 0 0 0 5.09zm0-1.272a1.273 1.273 0 1 0 0-2.545 1.273 1.273 0 0 0 0 2.545zm0 10.182a2.545 2.545 0 1 0 0-5.09 2.545 2.545 0 0 0 0 5.09zm0-1.273a1.273 1.273 0 1 0 0-2.545 1.273 1.273 0 0 0 0 2.545zm-8.91-2.545a2.545 2.545 0 1 0 0-5.091 2.545 2.545 0 0 0 0 5.09zm0-1.273a1.273 1.273 0 1 0 0-2.545 1.273 1.273 0 0 0 0 2.545z"
                  fill="#959FB1"/>
        </g>
    </svg>
    <svg xmlns="http://www.w3.org/2000/svg" width="22" height="22" viewBox="-2 -2 22 22" x="189" y="2">
        <title>Slice 1</title>
        <g fill="none" fill-rule="evenodd">
            <path d="M4.772 6.596l3.45-2.138M5.157 8.944l3.524 1.47" stroke="#E9C2A6" stroke-width="1.5"/>
            <path d="M11.455 5.09a2.545 2.545 0 1 0 0-5.09 2.545 2.545 0 0 0 0 5.09zm0-1.272a1.273 1.273 0 1 0 0-2.545 1.273 1.273 0 0 0 0 2.545zm0 10.182a2.545 2.545 0 1 0 0-5.09 2.545 2.545 0 0 0 0 5.09zm0-1.273a1.273 1.273 0 1 0 0-2.545 1.273 1.273 0 0 0 0 2.545zm-8.91-2.545a2.545 2.545 0 1 0 0-5.091 2.545 2.545 0 0 0 0 5.09zm0-1.273a1.273 1.273 0 1 0 0-2.545 1.273 1.273 0 0 0 0 2.545z"
                  fill="#E9C2A6"/>
        </g>
    </svg>
    <svg xmlns="http://www.w3.org/2000/svg" width="22" height="22" viewBox="-2 -2 22 22" x="216" y="0">
        <title>搜索</title>
        <path d="M9 15A6 6 0 1 0 9 3a6 6 0 0 0 0 12zm0-2a4 4 0 1 0 0-8 4 4 0 0 0 0 8zm6.153.738l1.678 1.678a.996.996 0 0 1-.003 1.412 1.003 1.003 0 0 1-1.412.003l-1.822-1.823a7.032 7.032 0 0 0 1.559-1.27z"
              fill="#ADB8C4" fill-rule="evenodd"/>
    </svg>
    <svg xmlns="http://www.w3.org/2000/svg" width="22" height="22" viewBox="-2 -2 22 22" x="243" y="2">
        <title>16</title>
        <g fill="none" fill-rule="evenodd">
            <circle fill="#E6E6FA" cx="8" cy="8" r="7.5"/>
            <path d="M8 15A7 7 0 1 0 8 1a7 7 0 0 0 0 14zm0 1A8 8 0 1 1 8 0a8 8 0 0 1 0 16z" fill="#E6E6FA"/>
        </g>
    </svg>
    <svg xmlns="http://www.w3.org/2000/svg" width="22" height="22" viewBox="-2 -2 22 22" x="270" y="2">
        <title>16</title>
        <g fill="none" fill-rule="evenodd">
            <circle fill="#7CFC00" cx="8" cy="8" r="7.5"/>
            <path d="M8 15A7 7 0 1 0 8 1a7 7 0 0 0 0 14zm0 1A8 8 0 1 1 8 0a8 8 0 0 1 0 16z" fill="#ADFF2F"/>
        </g>
    </svg>
    <svg xmlns="http://www.w3.org/2000/svg" width="22" height="22" viewBox="-2 -2 22 22" x="5" y="24">
        <title>删除1</title>
        <path d="M7.89 7.182l2.474-2.475L9.657 4 7.182 6.475 4.707 4 4 4.707l2.475 2.475L4 9.657l.707.707 2.475-2.475 2.475 2.475.707-.707-2.475-2.475zM7 14A7 7 0 1 0 7 0a7 7 0 0 0 0 14z"
              fill="#B5A642" fill-rule="evenodd"/>
    </svg>
</svg>